<svg width="18" height="18" viewBox="0 0 18 18" fill="none" xmlns="http://www.w3.org/2000/svg">
<path d="M15.2325 10.6275L14.9062 10.365C14.8185 10.2948 14.7477 10.2058 14.6991 10.1045C14.6504 10.0032 14.6251 9.89235 14.625 9.78V6.75C14.6246 5.44788 14.1724 4.18623 13.3456 3.18028C12.5188 2.17432 11.3686 1.48636 10.0912 1.23375C10.029 0.992174 9.88815 0.778154 9.69095 0.625348C9.49375 0.472542 9.25135 0.389618 9.00187 0.389618C8.7524 0.389618 8.51 0.472542 8.3128 0.625348C8.1156 0.778154 7.97478 0.992174 7.9125 1.23375C6.63442 1.4856 5.48338 2.17322 4.65585 3.17926C3.82832 4.18529 3.37561 5.44735 3.375 6.75V9.78C3.37493 9.89235 3.34962 10.0032 3.30094 10.1045C3.25226 10.2058 3.18145 10.2948 3.09375 10.365L2.7675 10.6275C2.37348 10.9425 2.05509 11.3418 1.83574 11.7961C1.61639 12.2504 1.50166 12.748 1.5 13.2525V13.875C1.5 14.2728 1.65804 14.6544 1.93934 14.9357C2.22064 15.217 2.60218 15.375 3 15.375H6.0975C6.26655 16.0154 6.64276 16.5818 7.16745 16.9859C7.69214 17.3901 8.33583 17.6092 8.99813 17.6092C9.66043 17.6092 10.3041 17.3901 10.8288 16.9859C11.3535 16.5818 11.7297 16.0154 11.8988 15.375H15C15.3978 15.375 15.7794 15.217 16.0607 14.9357C16.342 14.6544 16.5 14.2728 16.5 13.875V13.26C16.4995 12.7543 16.3853 12.2551 16.1659 11.7995C15.9465 11.3438 15.6275 10.9433 15.2325 10.6275ZM9 16.125C8.73823 16.1234 8.48143 16.0534 8.25512 15.9218C8.02882 15.7902 7.84088 15.6017 7.71 15.375H10.2938C10.1625 15.6023 9.97402 15.7911 9.747 15.9227C9.51998 16.0543 9.26241 16.1241 9 16.125ZM15 13.875H3V13.26C3.0004 12.979 3.06397 12.7016 3.186 12.4485C3.30803 12.1953 3.4854 11.9729 3.705 11.7975L4.03125 11.535C4.29436 11.3243 4.50678 11.0573 4.65282 10.7535C4.79886 10.4497 4.87479 10.117 4.875 9.78V6.75C4.875 5.65598 5.3096 4.60677 6.08318 3.83318C6.85677 3.0596 7.90598 2.625 9 2.625C10.094 2.625 11.1432 3.0596 11.9168 3.83318C12.6904 4.60677 13.125 5.65598 13.125 6.75V9.78C13.1246 10.1177 13.2003 10.4511 13.3464 10.7556C13.4924 11.06 13.7051 11.3277 13.9688 11.5388L14.295 11.8013C14.5141 11.9762 14.6912 12.1981 14.8132 12.4505C14.9352 12.703 14.999 12.9796 15 13.26V13.875Z" fill="white"/>
</svg>
